# File produced by Open Asset Import Library (http://www.assimp.sf.net)
# (assimp v3.1.128981410)

mtllib SpikeRollSubs.mtl

# vertex positions
v 0.115000 -0.081900 0.155300
v -0.001500 -0.081200 0.154700
v -0.001600 -0.166800 0.052000
v 0.115000 -0.167500 0.052500
v -0.000700 -0.154700 -0.081200
v 0.115900 -0.155400 -0.080700
v 0.000600 -0.052000 -0.166800
v 0.117100 -0.052700 -0.166300
v 0.001500 0.081200 -0.154700
v 0.118100 0.080500 -0.154100
v 0.001600 0.166800 -0.052000
v 0.118100 0.166100 -0.051400
v 0.000700 0.154700 0.081200
v 0.117200 0.154000 0.081800
v 0.115900 0.051300 0.167400
v -0.000600 0.052000 0.166800
v 0.231500 -0.082600 0.155800
v 0.231500 -0.168200 0.053100
v 0.232400 -0.156100 -0.080100
v 0.233700 -0.053400 -0.165700
v 0.234600 0.079800 -0.153600
v 0.234600 0.165400 -0.050800
v 0.233700 0.153300 0.082400
v 0.232400 0.050600 0.168000
v 0.348000 -0.083300 0.156400
v 0.348000 -0.168900 0.053700
v 0.348900 -0.156800 -0.079500
v 0.350200 -0.054100 -0.165100
v 0.351100 0.079100 -0.153000
v 0.351100 0.164700 -0.050300
v 0.350200 0.152600 0.082900
v 0.348900 0.049900 0.168500
v 0.464500 -0.169600 0.054200
v 0.465400 -0.157500 -0.079000
v 0.466700 -0.054800 -0.164600
v 0.467600 0.078400 -0.152400
v 0.467600 0.164000 -0.049700
v 0.466700 0.151900 0.083500
v 0.465400 0.049200 0.169100
v 0.464500 -0.084000 0.157000
v 0.581000 -0.084700 0.157500
v 0.581000 -0.170300 0.054800
v 0.581900 -0.158200 -0.078400
v 0.583200 -0.055500 -0.164000
v 0.584100 0.077700 -0.151900
v 0.584100 0.163300 -0.049100
v 0.583200 0.151200 0.084100
v 0.582000 0.048500 0.169700
v 0.697500 -0.085400 0.158100
v 0.697500 -0.171000 0.055400
v 0.698400 -0.158900 -0.077800
v 0.699700 -0.056200 -0.163400
v 0.700600 0.077000 -0.151300
v 0.700700 0.162600 -0.048600
v 0.699800 0.150500 0.084600
v 0.698500 0.047800 0.170200
v 0.814100 -0.086100 0.158700
v 0.814000 -0.171700 0.055900
v 0.814900 -0.159600 -0.077300
v 0.816200 -0.056900 -0.162900
v 0.817200 0.076300 -0.150700
v 0.817200 0.161900 -0.048000
v 0.816300 0.149800 0.085200
v 0.815000 0.047100 0.170800
v 0.930600 -0.172400 0.056500
v 0.931500 -0.160300 -0.076700
v 0.932700 -0.057600 -0.162300
v 0.933700 0.075600 -0.150200
v 0.933700 0.161200 -0.047400
v 0.932800 0.149100 0.085800
v 0.931500 0.046400 0.171400
v 0.930600 -0.086800 0.159300
v 1.047100 -0.087500 0.159800
v 1.047100 -0.173100 0.057100
v 1.048000 -0.161000 -0.076100
v 1.049300 -0.058300 -0.161700
v 1.050200 0.074900 -0.149600
v 1.050200 0.160500 -0.046900
v 1.049300 0.148400 0.086300
v 1.048000 0.045700 0.171900
v 1.163600 -0.088200 0.160400
v 1.163600 -0.173900 0.057600
v 1.164500 -0.161700 -0.075600
v 1.165800 -0.059000 -0.161200
v 1.166700 0.074200 -0.149000
v 1.166700 0.159800 -0.046300
v 1.165800 0.147700 0.086900
v 1.164500 0.044900 0.172500
v 1.277700 -0.088900 0.160900
v 1.280100 -0.174600 0.058200
v 1.281000 -0.162400 -0.075000
v 1.282300 -0.059700 -0.160600
v 1.282400 0.073500 -0.148500
v 1.280800 0.159100 -0.045700
v 1.279900 0.147000 0.087500
v 1.278600 0.044300 0.173100
v 0.058300 0.183500 0.220900
v 0.177500 0.219600 -0.183000
v 0.291300 -0.185600 -0.219200
v 0.405000 -0.223100 0.185800
v 0.524400 0.180700 0.223200
v 0.643600 0.216800 -0.180700
v 0.757300 -0.188400 -0.217000
v 0.871100 -0.225900 0.188100
v 0.990400 0.177900 0.225500
v 1.109700 0.214000 -0.178500
v 1.223400 -0.191200 -0.214700
v 1.413300 -0.163200 -0.074300
v 1.414600 -0.060500 -0.160000
v 1.416400 0.072700 -0.147800
v 1.418000 0.158300 -0.045100
v 2.694100 -0.183100 0.065100
v 2.694100 -0.097500 0.167800
v 2.577600 -0.096800 0.167300
v 2.577600 -0.182400 0.064500
v 2.695000 -0.171000 -0.068100
v 2.578500 -0.170300 -0.068700
v 2.696300 -0.068200 -0.153700
v 2.579800 -0.067500 -0.154300
v 2.697200 0.065000 -0.141600
v 2.580700 0.065700 -0.142200
v 2.697200 0.150600 -0.038800
v 2.580700 0.151300 -0.039400
v 2.696300 0.138500 0.094300
v 2.579800 0.139200 0.093800
v 2.695000 0.035700 0.180000
v 2.578500 0.036400 0.179400
v 2.461100 -0.096100 0.166700
v 2.461100 -0.181700 0.064000
v 2.462000 -0.169600 -0.069200
v 2.463300 -0.066800 -0.154800
v 2.464200 0.066400 -0.142700
v 2.464200 0.152000 -0.040000
v 2.463300 0.139900 0.093200
v 2.462000 0.037100 0.178800
v 2.344600 -0.095400 0.166100
v 2.344500 -0.181000 0.063400
v 2.345400 -0.168900 -0.069800
v 2.346700 -0.066100 -0.155400
v 2.347700 0.067100 -0.143300
v 2.347700 0.152700 -0.040500
v 2.346800 0.140600 0.092600
v 2.345500 0.037800 0.178300
v 2.228000 -0.180300 0.062800
v 2.228900 -0.168200 -0.070400
v 2.230200 -0.065400 -0.156000
v 2.231100 0.067800 -0.143900
v 2.231200 0.153400 -0.041100
v 2.230300 0.141300 0.092100
v 2.229000 0.038500 0.177700
v 2.228000 -0.094700 0.165600
v 2.111500 -0.094000 0.165000
v 2.111500 -0.179600 0.062200
v 2.112400 -0.167400 -0.070900
v 2.113700 -0.064700 -0.156500
v 2.114600 0.068500 -0.144400
v 2.114600 0.154100 -0.041700
v 2.113700 0.142000 0.091500
v 2.112500 0.039200 0.177100
v 1.995000 -0.093200 0.164400
v 1.995000 -0.178900 0.061700
v 1.995900 -0.166700 -0.071500
v 1.997200 -0.064000 -0.157100
v 1.998100 0.069200 -0.145000
v 1.998100 0.154800 -0.042200
v 1.997200 0.142700 0.090900
v 1.995900 0.039900 0.176600
v 1.878500 -0.092500 0.163900
v 1.878500 -0.178200 0.061100
v 1.879400 -0.166000 -0.072100
v 1.880700 -0.063300 -0.157700
v 1.881600 0.069900 -0.145600
v 1.881600 0.155500 -0.042800
v 1.880700 0.143400 0.090400
v 1.879400 0.040600 0.176000
v 1.762000 -0.177500 0.060500
v 1.762900 -0.165300 -0.072600
v 1.764200 -0.062600 -0.158300
v 1.765100 0.070600 -0.146100
v 1.765100 0.156200 -0.043400
v 1.764200 0.144100 0.089800
v 1.762900 0.041300 0.175400
v 1.762000 -0.091800 0.163300
v 1.645500 -0.091100 0.162700
v 1.645500 -0.176800 0.060000
v 1.646400 -0.164600 -0.073200
v 1.647600 -0.061900 -0.158800
v 1.648600 0.071300 -0.146700
v 1.648600 0.156900 -0.043900
v 1.647700 0.144800 0.089200
v 1.646400 0.042000 0.174800
v 1.529000 -0.090400 0.162200
v 1.528900 -0.176100 0.059400
v 1.529800 -0.163900 -0.073800
v 1.531100 -0.061200 -0.159400
v 1.532000 0.072000 -0.147300
v 1.532100 0.157600 -0.044500
v 1.531200 0.145500 0.088700
v 1.529900 0.042700 0.174300
v 1.414900 -0.089800 0.161600
v 1.412400 -0.175400 0.058800
v 1.417100 0.146200 0.088100
v 1.415800 0.043400 0.173700
v 2.637400 0.168000 0.233500
v 2.523600 0.205500 -0.171600
v 2.404300 -0.198300 -0.209000
v 2.285100 -0.234400 0.195000
v 2.171400 0.170800 0.231200
v 2.057600 0.208300 -0.173800
v 1.938300 -0.195500 -0.211200
v 1.819000 -0.231600 0.192700
v 1.705300 0.173600 0.229000
v 1.591500 0.211100 -0.176100
v 1.472200 -0.192700 -0.213500

# UV coordinates
vt 0.046258 0.658980
vt 0.003749 0.658948
vt 0.003744 0.610161
vt 0.046292 0.610169
vt 0.003847 0.561354
vt 0.046390 0.561366
vt 0.046142 0.951752
vt 0.003593 0.951721
vt 0.003748 0.902934
vt 0.046257 0.902966
vt 0.003835 0.854133
vt 0.046385 0.854159
vt 0.003898 0.805353
vt 0.046410 0.805374
vt 0.003866 0.756548
vt 0.046373 0.756570
vt 0.046293 0.707783
vt 0.003776 0.707757
vt 0.088770 0.658996
vt 0.088804 0.610210
vt 0.088894 0.561402
vt 0.088659 0.951802
vt 0.088808 0.903008
vt 0.088899 0.854200
vt 0.088923 0.805387
vt 0.088882 0.756585
vt 0.088804 0.707802
vt 0.131281 0.659027
vt 0.131312 0.610243
vt 0.131396 0.561438
vt 0.131335 0.903025
vt 0.131412 0.854218
vt 0.131434 0.805434
vt 0.131393 0.756626
vt 0.131313 0.707835
vt 0.173813 0.610238
vt 0.173898 0.561433
vt 0.173725 0.951825
vt 0.131209 0.951813
vt 0.173851 0.903039
vt 0.173929 0.854232
vt 0.173944 0.805443
vt 0.173904 0.756636
vt 0.173826 0.707850
vt 0.173784 0.659049
vt 0.216294 0.659058
vt 0.216316 0.610269
vt 0.216402 0.561462
vt 0.216243 0.951854
vt 0.216365 0.903064
vt 0.216446 0.854261
vt 0.216456 0.805454
vt 0.216416 0.756649
vt 0.216370 0.707870
vt 0.258804 0.659083
vt 0.258823 0.610296
vt 0.258904 0.561492
vt 0.258759 0.951878
vt 0.258883 0.903086
vt 0.258965 0.854281
vt 0.259007 0.805494
vt 0.258961 0.756684
vt 0.258882 0.707891
vt 0.301348 0.659099
vt 0.301330 0.610286
vt 0.301405 0.561480
vt 0.301410 0.903103
vt 0.301517 0.854289
vt 0.301522 0.805498
vt 0.301472 0.756693
vt 0.301392 0.707904
vt 0.343869 0.610303
vt 0.343942 0.561500
vt 0.343866 0.951898
vt 0.301318 0.951890
vt 0.343927 0.903111
vt 0.344033 0.854309
vt 0.344035 0.805496
vt 0.343984 0.756693
vt 0.343901 0.707914
vt 0.343850 0.659112
vt 0.386359 0.659113
vt 0.386378 0.610320
vt 0.386442 0.561513
vt 0.386378 0.951908
vt 0.386485 0.903118
vt 0.386548 0.854313
vt 0.386550 0.805528
vt 0.386497 0.756723
vt 0.386407 0.707925
vt 0.428865 0.659131
vt 0.428880 0.610296
vt 0.428947 0.561488
vt 0.428888 0.951908
vt 0.429006 0.903124
vt 0.429075 0.854315
vt 0.429070 0.805528
vt 0.429009 0.756722
vt 0.428917 0.707901
vt 0.470497 0.659121
vt 0.471383 0.610310
vt 0.471448 0.561500
vt 0.471534 0.903131
vt 0.471300 0.854329
vt 0.470713 0.805515
vt 0.470644 0.756711
vt 0.470550 0.707929
vt 0.876774 0.385533
vt 0.877661 0.479723
vt 0.834186 0.433002
vt 0.791606 0.480459
vt 0.790721 0.386271
vt 0.253822 0.262792
vt 0.254416 0.357006
vt 0.211002 0.310175
vt 0.168336 0.357579
vt 0.167742 0.263329
vt 0.169870 0.516866
vt 0.170768 0.422638
vt 0.213360 0.470122
vt 0.256859 0.423386
vt 0.255960 0.517615
vt 0.026386 0.505771
vt 0.027037 0.411532
vt 0.069648 0.458921
vt 0.113135 0.412081
vt 0.112485 0.506351
vt 0.448611 0.024734
vt 0.449480 0.118924
vt 0.405975 0.072196
vt 0.363380 0.119639
vt 0.362558 0.025453
vt 0.417502 0.139418
vt 0.418141 0.233676
vt 0.374663 0.186839
vt 0.332007 0.234210
vt 0.331413 0.139984
vt 0.472925 0.463189
vt 0.473740 0.368960
vt 0.516404 0.416381
vt 0.559832 0.369614
vt 0.559013 0.463841
vt 0.369554 0.342466
vt 0.370156 0.248225
vt 0.412810 0.295642
vt 0.456273 0.248816
vt 0.455624 0.343055
vt 0.443848 0.360638
vt 0.444665 0.454837
vt 0.401251 0.408083
vt 0.358599 0.455489
vt 0.357787 0.361290
vt 0.667711 0.371200
vt 0.668376 0.465446
vt 0.624887 0.418633
vt 0.582265 0.466061
vt 0.581600 0.371812
vt 0.472798 0.351824
vt 0.473688 0.257631
vt 0.516267 0.305092
vt 0.559747 0.258372
vt 0.558855 0.352567
vt 0.519709 0.951944
vt 0.471431 0.951919
vt 0.519820 0.903135
vt 0.520206 0.854323
vt 0.520783 0.805536
vt 0.987296 0.610135
vt 0.987319 0.658924
vt 0.944810 0.658966
vt 0.944782 0.610154
vt 0.987321 0.561326
vt 0.944812 0.561347
vt 0.987608 0.902965
vt 0.987555 0.951777
vt 0.945042 0.951807
vt 0.945096 0.902994
vt 0.987634 0.854164
vt 0.945120 0.854191
vt 0.987613 0.805353
vt 0.945102 0.805385
vt 0.987520 0.756581
vt 0.945011 0.756586
vt 0.987415 0.707737
vt 0.944900 0.707771
vt 0.902301 0.658994
vt 0.902272 0.610209
vt 0.902306 0.561402
vt 0.902528 0.951856
vt 0.902581 0.903031
vt 0.902606 0.854221
vt 0.902590 0.805429
vt 0.902502 0.756620
vt 0.902384 0.707801
vt 0.859786 0.659010
vt 0.859729 0.610221
vt 0.859768 0.561415
vt 0.860019 0.903051
vt 0.860092 0.854241
vt 0.860074 0.805426
vt 0.859988 0.756655
vt 0.859871 0.707816
vt 0.817224 0.610228
vt 0.817264 0.561424
vt 0.859936 0.951868
vt 0.817421 0.951874
vt 0.817503 0.903062
vt 0.817542 0.854262
vt 0.817559 0.805452
vt 0.817474 0.756649
vt 0.817360 0.707838
vt 0.817243 0.659036
vt 0.774732 0.659048
vt 0.774717 0.610237
vt 0.774764 0.561465
vt 0.774908 0.951869
vt 0.774986 0.903080
vt 0.775028 0.854269
vt 0.775007 0.805479
vt 0.774924 0.756673
vt 0.774843 0.707854
vt 0.732222 0.659088
vt 0.732213 0.610276
vt 0.732259 0.561467
vt 0.732396 0.951882
vt 0.732468 0.903093
vt 0.732508 0.854286
vt 0.732490 0.805470
vt 0.732410 0.756700
vt 0.732294 0.707862
vt 0.689710 0.659113
vt 0.689705 0.610278
vt 0.689753 0.561469
vt 0.689941 0.903105
vt 0.689993 0.854303
vt 0.689973 0.805492
vt 0.689895 0.756691
vt 0.689787 0.707878
vt 0.647204 0.610283
vt 0.647253 0.561509
vt 0.689852 0.951892
vt 0.647338 0.951917
vt 0.647424 0.903109
vt 0.647474 0.854298
vt 0.647459 0.805514
vt 0.647382 0.756709
vt 0.647274 0.707891
vt 0.647206 0.659123
vt 0.604695 0.659125
vt 0.604698 0.610314
vt 0.604753 0.561505
vt 0.604825 0.951913
vt 0.604873 0.903124
vt 0.604953 0.854316
vt 0.604944 0.805499
vt 0.604867 0.756727
vt 0.604760 0.707900
vt 0.562188 0.659139
vt 0.562155 0.610306
vt 0.562217 0.561499
vt 0.562277 0.951922
vt 0.562350 0.903133
vt 0.562398 0.854328
vt 0.562420 0.805518
vt 0.562353 0.756714
vt 0.562249 0.707903
vt 0.520558 0.659109
vt 0.519653 0.610295
vt 0.519716 0.561523
vt 0.520714 0.756734
vt 0.520612 0.707915
vt 0.016291 0.211780
vt 0.059788 0.258561
vt 0.017177 0.306076
vt 0.103266 0.305362
vt 0.102386 0.211095
vt 0.152424 0.068166
vt 0.195691 0.115017
vt 0.153021 0.162427
vt 0.239112 0.161852
vt 0.238514 0.067626
vt 0.587129 0.109280
vt 0.544487 0.061767
vt 0.588011 0.015037
vt 0.501893 0.014303
vt 0.501014 0.108544
vt 0.872083 0.358303
vt 0.829233 0.310969
vt 0.872631 0.264119
vt 0.786581 0.263552
vt 0.785986 0.357772
vt 0.469799 0.123082
vt 0.513277 0.169808
vt 0.470676 0.217337
vt 0.556757 0.216618
vt 0.555931 0.122360
vt 0.802556 0.132042
vt 0.845814 0.178885
vt 0.803210 0.226268
vt 0.889297 0.225716
vt 0.888644 0.131459
vt 0.765446 0.470628
vt 0.722858 0.423158
vt 0.766332 0.376438
vt 0.680278 0.375702
vt 0.679394 0.469890
vt 0.782829 0.229585
vt 0.740020 0.182144
vt 0.783477 0.135319
vt 0.697412 0.134720
vt 0.696762 0.228989
vt 0.579774 0.135334
vt 0.623212 0.182156
vt 0.580540 0.229627
vt 0.666658 0.229001
vt 0.665894 0.134707
vt 0.675864 0.263349
vt 0.719172 0.310175
vt 0.676511 0.357608
vt 0.762598 0.357019
vt 0.761997 0.262761
vt 0.659577 0.348943
vt 0.616981 0.301446
vt 0.660464 0.254708
vt 0.574366 0.253991
vt 0.573484 0.348255

# vertex normals
vn -0.008820 -0.464774 0.885386
vn -0.008821 -0.954741 0.297309
vn -0.008820 -0.954723 0.297365
vn -0.003723 -0.885414 -0.464789
vn 0.003510 -0.297375 -0.954754
vn 0.003510 -0.297349 -0.954762
vn 0.008820 0.464774 -0.885386
vn -0.151179 0.307487 -0.939466
vn 0.008820 0.954723 -0.297365
vn -0.151113 0.979552 -0.132827
vn -0.291911 0.945345 0.145299
vn 0.164294 0.937367 0.307167
vn 0.154306 0.131107 0.979286
vn -0.303882 -0.024012 0.952407
vn -0.164294 -0.937367 -0.307167
vn -0.154306 -0.131107 -0.979286
vn 0.167151 0.305438 -0.937427
vn 0.167354 0.977120 -0.131259
vn 0.003723 0.885414 0.464789
vn -0.003510 0.297375 0.954754
vn -0.167151 -0.305438 0.937427
vn -0.167358 -0.977143 0.131080
vn 0.154063 -0.939577 -0.305713
vn 0.164175 -0.133018 -0.977421
vn 0.151113 -0.979552 0.132827
vn -0.154063 0.939577 0.305713
vn -0.164175 0.133018 0.977421
vn 0.151328 -0.307480 0.939444
vn -0.151328 0.307480 -0.939444
vn 0.000031 0.640052 0.768331
vn 0.009523 0.768246 -0.640083
vn -0.000031 -0.640052 -0.768331
vn -0.009523 -0.768246 0.640083
vn 0.304086 0.941059 0.148123
vn 0.292100 -0.027631 0.955989

# Mesh
g SpikeRoll
usemtl wire_008061138
f 4/4/3 1/1/1 2/2/1 3/3/2
f 6/6/4 4/4/3 3/3/2 5/5/4
f 8/10/6 6/7/4 5/8/4 7/9/5
f 10/12/8 8/10/6 7/9/5 9/11/7
f 12/14/10 10/12/8 9/11/7 11/13/9
f 14/16/12 12/14/10 11/13/9 13/15/11
f 1/1/1 15/17/13 16/18/14 2/2/1
f 18/20/2 17/19/1 1/1/1 4/4/3
f 19/21/15 18/20/2 4/4/3 6/6/4
f 20/23/16 19/22/15 6/7/4 8/10/6
f 21/24/17 20/23/16 8/10/6 10/12/8
f 23/26/19 22/25/18 12/14/10 14/16/12
f 24/27/20 23/26/19 14/16/12 15/17/13
f 17/19/1 24/27/20 15/17/13 1/1/1
f 26/29/22 25/28/21 17/19/1 18/20/2
f 27/30/23 26/29/22 18/20/2 19/21/15
f 29/32/7 28/31/24 20/23/16 21/24/17
f 30/33/9 29/32/7 21/24/17 22/25/18
f 31/34/19 30/33/9 22/25/18 23/26/19
f 32/35/20 31/34/19 23/26/19 24/27/20
f 25/28/21 32/35/20 24/27/20 17/19/1
f 34/37/4 33/36/25 26/29/22 27/30/23
f 35/40/5 34/38/4 27/39/23 28/31/24
f 36/41/7 35/40/5 28/31/24 29/32/7
f 37/42/9 36/41/7 29/32/7 30/33/9
f 38/43/26 37/42/9 30/33/9 31/34/19
f 39/44/27 38/43/26 31/34/19 32/35/20
f 40/45/28 39/44/27 32/35/20 25/28/21
f 42/47/2 41/46/1 40/45/28 33/36/25
f 43/48/4 42/47/2 33/36/25 34/37/4
f 44/50/5 43/49/4 34/38/4 35/40/5
f 45/51/29 44/50/5 35/40/5 36/41/7
f 46/52/10 45/51/29 36/41/7 37/42/9
f 47/53/12 46/52/10 37/42/9 38/43/26
f 41/46/1 48/54/13 39/44/27 40/45/28
f 50/56/2 49/55/1 41/46/1 42/47/2
f 51/57/15 50/56/2 42/47/2 43/48/4
f 52/59/16 51/58/15 43/49/4 44/50/5
f 53/60/17 52/59/16 44/50/5 45/51/29
f 55/62/19 54/61/18 46/52/10 47/53/12
f 56/63/20 55/62/19 47/53/12 48/54/13
f 49/55/1 56/63/20 48/54/13 41/46/1
f 58/65/22 57/64/21 49/55/1 50/56/2
f 59/66/23 58/65/22 50/56/2 51/57/15
f 61/68/7 60/67/24 52/59/16 53/60/17
f 62/69/9 61/68/7 53/60/17 54/61/18
f 63/70/19 62/69/9 54/61/18 55/62/19
f 64/71/20 63/70/19 55/62/19 56/63/20
f 57/64/21 64/71/20 56/63/20 49/55/1
f 66/73/4 65/72/25 58/65/22 59/66/23
f 67/76/5 66/74/4 59/75/23 60/67/24
f 68/77/7 67/76/5 60/67/24 61/68/7
f 69/78/9 68/77/7 61/68/7 62/69/9
f 70/79/26 69/78/9 62/69/9 63/70/19
f 71/80/27 70/79/26 63/70/19 64/71/20
f 72/81/28 71/80/27 64/71/20 57/64/21
f 74/83/2 73/82/1 72/81/28 65/72/25
f 75/84/4 74/83/2 65/72/25 66/73/4
f 76/86/5 75/85/4 66/74/4 67/76/5
f 77/87/29 76/86/5 67/76/5 68/77/7
f 78/88/10 77/87/29 68/77/7 69/78/9
f 79/89/12 78/88/10 69/78/9 70/79/26
f 73/82/1 80/90/13 71/80/27 72/81/28
f 82/92/2 81/91/1 73/82/1 74/83/2
f 83/93/15 82/92/2 74/83/2 75/84/4
f 84/95/16 83/94/15 75/85/4 76/86/5
f 85/96/17 84/95/16 76/86/5 77/87/29
f 87/98/19 86/97/18 78/88/10 79/89/12
f 88/99/20 87/98/19 79/89/12 80/90/13
f 81/91/1 88/99/20 80/90/13 73/82/1
f 90/101/3 89/100/1 81/91/1 82/92/2
f 91/102/23 90/101/3 82/92/2 83/93/15
f 93/104/7 92/103/24 84/95/16 85/96/17
f 94/105/9 93/104/7 85/96/17 86/97/18
f 95/106/19 94/105/9 86/97/18 87/98/19
f 96/107/20 95/106/19 87/98/19 88/99/20
f 89/100/1 96/107/20 88/99/20 81/91/1
f 13/108/11 16/109/14 97/110/30
f 16/109/14 15/111/13 97/110/30
f 15/111/13 14/112/12 97/110/30
f 14/112/12 13/108/11 97/110/30
f 10/113/8 12/114/10 98/115/31
f 12/114/10 22/116/18 98/115/31
f 22/116/18 21/117/17 98/115/31
f 21/117/17 10/113/8 98/115/31
f 19/118/15 20/119/16 99/120/32
f 20/119/16 28/121/24 99/120/32
f 28/121/24 27/122/23 99/120/32
f 27/122/23 19/118/15 99/120/32
f 25/123/21 26/124/22 100/125/33
f 26/124/22 33/126/25 100/125/33
f 33/126/25 40/127/28 100/125/33
f 40/127/28 25/123/21 100/125/33
f 38/128/26 39/129/27 101/130/30
f 39/129/27 48/131/13 101/130/30
f 48/131/13 47/132/12 101/130/30
f 47/132/12 38/128/26 101/130/30
f 45/133/29 46/134/10 102/135/31
f 46/134/10 54/136/18 102/135/31
f 54/136/18 53/137/17 102/135/31
f 53/137/17 45/133/29 102/135/31
f 51/138/15 52/139/16 103/140/32
f 52/139/16 60/141/24 103/140/32
f 60/141/24 59/142/23 103/140/32
f 59/142/23 51/138/15 103/140/32
f 57/143/21 58/144/22 104/145/33
f 58/144/22 65/146/25 104/145/33
f 65/146/25 72/147/28 104/145/33
f 72/147/28 57/143/21 104/145/33
f 70/148/26 71/149/27 105/150/30
f 71/149/27 80/151/13 105/150/30
f 80/151/13 79/152/12 105/150/30
f 79/152/12 70/148/26 105/150/30
f 77/153/29 78/154/10 106/155/31
f 78/154/10 86/156/18 106/155/31
f 86/156/18 85/157/17 106/155/31
f 85/157/17 77/153/29 106/155/31
f 83/158/15 84/159/16 107/160/32
f 84/159/16 92/161/24 107/160/32
f 92/161/24 91/162/23 107/160/32
f 91/162/23 83/158/15 107/160/32
f 109/165/16 108/163/15 91/164/23 92/103/24
f 110/166/7 109/165/16 92/103/24 93/104/7
f 111/167/9 110/166/7 93/104/7 94/105/9
f 112/168/2 113/169/1 114/170/1 115/171/3
f 116/172/4 112/168/2 115/171/3 117/173/4
f 118/174/5 116/175/4 117/176/4 119/177/6
f 120/178/7 118/174/5 119/177/6 121/179/17
f 122/180/9 120/178/7 121/179/17 123/181/18
f 124/182/34 122/180/9 123/181/18 125/183/26
f 113/169/1 126/184/35 127/185/27 114/170/1
f 115/171/3 114/170/1 128/186/1 129/187/2
f 117/173/4 115/171/3 129/187/2 130/188/23
f 119/177/6 117/176/4 130/189/23 131/190/24
f 121/179/17 119/177/6 131/190/24 132/191/29
f 125/183/26 123/181/18 133/192/10 134/193/19
f 127/185/27 125/183/26 134/193/19 135/194/20
f 114/170/1 127/185/27 135/194/20 128/186/1
f 129/187/2 128/186/1 136/195/28 137/196/25
f 130/188/23 129/187/2 137/196/25 138/197/15
f 132/191/29 131/190/24 139/198/16 140/199/7
f 133/192/10 132/191/29 140/199/7 141/200/9
f 134/193/19 133/192/10 141/200/9 142/201/19
f 135/194/20 134/193/19 142/201/19 143/202/20
f 128/186/1 135/194/20 143/202/20 136/195/28
f 138/197/15 137/196/25 144/203/22 145/204/4
f 139/198/16 138/205/15 145/206/4 146/207/5
f 140/199/7 139/198/16 146/207/5 147/208/7
f 141/200/9 140/199/7 147/208/7 148/209/9
f 142/201/19 141/200/9 148/209/9 149/210/12
f 143/202/20 142/201/19 149/210/12 150/211/13
f 136/195/28 143/202/20 150/211/13 151/212/21
f 144/203/22 151/212/21 152/213/1 153/214/2
f 145/204/4 144/203/22 153/214/2 154/215/4
f 146/207/5 145/206/4 154/216/4 155/217/5
f 147/208/7 146/207/5 155/217/5 156/218/17
f 148/209/9 147/208/7 156/218/17 157/219/18
f 149/210/12 148/209/9 157/219/18 158/220/26
f 151/212/21 150/211/13 159/221/27 152/213/1
f 153/214/2 152/213/1 160/222/1 161/223/2
f 154/215/4 153/214/2 161/223/2 162/224/23
f 155/217/5 154/216/4 162/225/23 163/226/24
f 156/218/17 155/217/5 163/226/24 164/227/29
f 158/220/26 157/219/18 165/228/10 166/229/19
f 159/221/27 158/220/26 166/229/19 167/230/20
f 152/213/1 159/221/27 167/230/20 160/222/1
f 161/223/2 160/222/1 168/231/28 169/232/25
f 162/224/23 161/223/2 169/232/25 170/233/15
f 164/227/29 163/226/24 171/234/16 172/235/7
f 165/228/10 164/227/29 172/235/7 173/236/9
f 166/229/19 165/228/10 173/236/9 174/237/19
f 167/230/20 166/229/19 174/237/19 175/238/20
f 160/222/1 167/230/20 175/238/20 168/231/28
f 170/233/15 169/232/25 176/239/22 177/240/4
f 171/234/16 170/241/15 177/242/4 178/243/5
f 172/235/7 171/234/16 178/243/5 179/244/7
f 173/236/9 172/235/7 179/244/7 180/245/9
f 174/237/19 173/236/9 180/245/9 181/246/12
f 175/238/20 174/237/19 181/246/12 182/247/13
f 168/231/28 175/238/20 182/247/13 183/248/21
f 176/239/22 183/248/21 184/249/1 185/250/2
f 177/240/4 176/239/22 185/250/2 186/251/4
f 178/243/5 177/242/4 186/252/4 187/253/5
f 179/244/7 178/243/5 187/253/5 188/254/17
f 180/245/9 179/244/7 188/254/17 189/255/18
f 181/246/12 180/245/9 189/255/18 190/256/26
f 183/248/21 182/247/13 191/257/27 184/249/1
f 185/250/2 184/249/1 192/258/1 193/259/2
f 186/251/4 185/250/2 193/259/2 194/260/23
f 187/253/5 186/252/4 194/261/23 195/262/24
f 188/254/17 187/253/5 195/262/24 196/263/29
f 190/256/26 189/255/18 197/264/10 198/265/19
f 191/257/27 190/256/26 198/265/19 199/266/20
f 184/249/1 191/257/27 199/266/20 192/258/1
f 193/259/2 192/258/1 200/267/1 201/268/3
f 194/260/23 193/259/2 201/268/3 108/269/15
f 196/263/29 195/262/24 109/165/16 110/166/7
f 197/264/10 196/263/29 110/166/7 111/167/9
f 198/265/19 197/264/10 111/167/9 202/270/19
f 199/266/20 198/265/19 202/270/19 203/271/20
f 192/258/1 199/266/20 203/271/20 200/267/1
f 124/272/34 204/273/30 126/274/35
f 126/274/35 204/273/30 127/275/27
f 127/275/27 204/273/30 125/276/26
f 125/276/26 204/273/30 124/272/34
f 121/277/17 205/278/31 123/279/18
f 123/279/18 205/278/31 133/280/10
f 133/280/10 205/278/31 132/281/29
f 132/281/29 205/278/31 121/277/17
f 130/282/23 206/283/32 131/284/24
f 131/284/24 206/283/32 139/285/16
f 139/285/16 206/283/32 138/286/15
f 138/286/15 206/283/32 130/282/23
f 136/287/28 207/288/33 137/289/25
f 137/289/25 207/288/33 144/290/22
f 144/290/22 207/288/33 151/291/21
f 151/291/21 207/288/33 136/287/28
f 149/292/12 208/293/30 150/294/13
f 150/294/13 208/293/30 159/295/27
f 159/295/27 208/293/30 158/296/26
f 158/296/26 208/293/30 149/292/12
f 156/297/17 209/298/31 157/299/18
f 157/299/18 209/298/31 165/300/10
f 165/300/10 209/298/31 164/301/29
f 164/301/29 209/298/31 156/297/17
f 162/302/23 210/303/32 163/304/24
f 163/304/24 210/303/32 171/305/16
f 171/305/16 210/303/32 170/306/15
f 170/306/15 210/303/32 162/302/23
f 168/307/28 211/308/33 169/309/25
f 169/309/25 211/308/33 176/310/22
f 176/310/22 211/308/33 183/311/21
f 183/311/21 211/308/33 168/307/28
f 181/312/12 212/313/30 182/314/13
f 182/314/13 212/313/30 191/315/27
f 191/315/27 212/313/30 190/316/26
f 190/316/26 212/313/30 181/312/12
f 188/317/17 213/318/31 189/319/18
f 189/319/18 213/318/31 197/320/10
f 197/320/10 213/318/31 196/321/29
f 196/321/29 213/318/31 188/317/17
f 194/322/23 214/323/32 195/324/24
f 195/324/24 214/323/32 109/325/16
f 109/325/16 214/323/32 108/326/15
f 108/326/15 214/323/32 194/322/23
f 201/268/3 200/267/1 89/100/1 90/101/3
f 108/269/15 201/268/3 90/101/3 91/102/23
f 202/270/19 111/167/9 94/105/9 95/106/19
f 203/271/20 202/270/19 95/106/19 96/107/20
f 200/267/1 203/271/20 96/107/20 89/100/1
